<svg width="83" height="83" viewBox="0 0 83 83" fill="none" xmlns="http://www.w3.org/2000/svg">
<g filter="url(#filter0_d_328_6)">
<g filter="url(#filter1_b_328_6)">
<circle cx="41.5" cy="37.5" r="37.5" fill="white" fill-opacity="0.16"/>
<circle cx="41.5" cy="37.5" r="37" stroke="white" stroke-opacity="0.15"/>
</g>
<path d="M38.778 40.3461C38.778 41.9739 37.6062 42.4883 36.1664 42.4883H32.3913V38.0268H36.2418C37.7987 38.0352 38.778 38.6846 38.778 40.3461ZM38.1335 33.405C38.1335 31.9122 36.9867 31.5579 35.7144 31.5579H32.3997V35.3363H35.9739C37.2379 35.3363 38.1335 34.7797 38.1335 33.405ZM49.2077 35.3616C47.6759 35.3616 46.6547 36.3231 46.5543 37.8665H51.7607C51.6184 36.3062 50.8149 35.3616 49.2077 35.3616ZM60.667 22.3818V52.0693C60.667 54.3043 58.8673 56.1176 56.6491 56.1176H27.1848C24.9667 56.1176 23.167 54.3043 23.167 52.0693V22.3818C23.167 20.1468 24.9667 18.3335 27.1848 18.3335H56.6491C58.8673 18.3335 60.667 20.1468 60.667 22.3818ZM45.9097 31.2374H52.422V29.6434H45.9097V31.2374ZM42.3104 40.5401C42.3104 38.5075 41.3562 36.7532 39.3807 36.1882C40.8205 35.4966 41.5738 34.6954 41.5738 33.0676C41.5738 29.8458 39.1882 29.0615 36.4343 29.0615H28.859V45.2547H36.6519C39.5732 45.2378 42.3104 43.8293 42.3104 40.5401ZM54.975 39.2919C54.975 35.8255 52.9577 32.9327 49.3165 32.9327C45.7674 32.9327 43.3651 35.6147 43.3651 39.14C43.3651 42.7919 45.6503 45.2968 49.3165 45.2968C52.0956 45.2968 53.8952 44.0402 54.7658 41.3497H51.9449C51.6352 42.3534 50.388 42.8763 49.417 42.8763C47.542 42.8763 46.5626 41.7714 46.5626 39.8991H54.9499C54.9583 39.7051 54.975 39.4943 54.975 39.2919Z" fill="white"/>
</g>
<defs>
<filter id="filter0_d_328_6" x="0" y="0" width="83" height="83" filterUnits="userSpaceOnUse" color-interpolation-filters="sRGB">
<feFlood flood-opacity="0" result="BackgroundImageFix"/>
<feColorMatrix in="SourceAlpha" type="matrix" values="0 0 0 0 0 0 0 0 0 0 0 0 0 0 0 0 0 0 127 0" result="hardAlpha"/>
<feOffset dy="4"/>
<feGaussianBlur stdDeviation="2"/>
<feComposite in2="hardAlpha" operator="out"/>
<feColorMatrix type="matrix" values="0 0 0 0 0 0 0 0 0 0 0 0 0 0 0 0 0 0 0.25 0"/>
<feBlend mode="normal" in2="BackgroundImageFix" result="effect1_dropShadow_328_6"/>
<feBlend mode="normal" in="SourceGraphic" in2="effect1_dropShadow_328_6" result="shape"/>
</filter>
<filter id="filter1_b_328_6" x="-21" y="-25" width="125" height="125" filterUnits="userSpaceOnUse" color-interpolation-filters="sRGB">
<feFlood flood-opacity="0" result="BackgroundImageFix"/>
<feGaussianBlur in="BackgroundImageFix" stdDeviation="12.5"/>
<feComposite in2="SourceAlpha" operator="in" result="effect1_backgroundBlur_328_6"/>
<feBlend mode="normal" in="SourceGraphic" in2="effect1_backgroundBlur_328_6" result="shape"/>
</filter>
</defs>
</svg>
