<svg width="75" height="75" viewBox="0 0 75 75" fill="none" xmlns="http://www.w3.org/2000/svg">
<g filter="url(#filter0_b_328_6)">
<circle cx="37.5" cy="37.5" r="37.5" fill="white" fill-opacity="0.16"/>
<circle cx="37.5" cy="37.5" r="37" stroke="white" stroke-opacity="0.15"/>
</g>
<path d="M34.778 40.3461C34.778 41.9739 33.6062 42.4883 32.1664 42.4883H28.3913V38.0268H32.2418C33.7987 38.0352 34.778 38.6846 34.778 40.3461ZM34.1335 33.405C34.1335 31.9122 32.9867 31.5579 31.7144 31.5579H28.3997V35.3363H31.9739C33.2379 35.3363 34.1335 34.7797 34.1335 33.405ZM45.2077 35.3616C43.6759 35.3616 42.6547 36.3231 42.5543 37.8665H47.7607C47.6184 36.3062 46.8149 35.3616 45.2077 35.3616ZM56.667 22.3818V52.0693C56.667 54.3043 54.8673 56.1176 52.6491 56.1176H23.1848C20.9667 56.1176 19.167 54.3043 19.167 52.0693V22.3818C19.167 20.1468 20.9667 18.3335 23.1848 18.3335H52.6491C54.8673 18.3335 56.667 20.1468 56.667 22.3818ZM41.9097 31.2374H48.422V29.6434H41.9097V31.2374ZM38.3104 40.5401C38.3104 38.5075 37.3562 36.7532 35.3807 36.1882C36.8205 35.4966 37.5738 34.6954 37.5738 33.0676C37.5738 29.8458 35.1882 29.0615 32.4343 29.0615H24.859V45.2547H32.6519C35.5732 45.2378 38.3104 43.8293 38.3104 40.5401ZM50.975 39.2919C50.975 35.8255 48.9577 32.9327 45.3165 32.9327C41.7674 32.9327 39.3651 35.6147 39.3651 39.14C39.3651 42.7919 41.6503 45.2968 45.3165 45.2968C48.0956 45.2968 49.8952 44.0402 50.7658 41.3497H47.9449C47.6352 42.3534 46.388 42.8763 45.417 42.8763C43.542 42.8763 42.5626 41.7714 42.5626 39.8991H50.9499C50.9583 39.7051 50.975 39.4943 50.975 39.2919Z" fill="white"/>
<defs>
<filter id="filter0_b_328_6" x="-25" y="-25" width="125" height="125" filterUnits="userSpaceOnUse" color-interpolation-filters="sRGB">
<feFlood flood-opacity="0" result="BackgroundImageFix"/>
<feGaussianBlur in="BackgroundImageFix" stdDeviation="12.5"/>
<feComposite in2="SourceAlpha" operator="in" result="effect1_backgroundBlur_328_6"/>
<feBlend mode="normal" in="SourceGraphic" in2="effect1_backgroundBlur_328_6" result="shape"/>
</filter>
</defs>
</svg>
