<svg width="60" height="62" viewBox="0 0 60 62" fill="none" xmlns="http://www.w3.org/2000/svg">
<path d="M24.9777 35.9702C24.9777 38.5746 23.1027 39.3977 20.7991 39.3977H14.7589V32.2592H20.9196C23.4107 32.2727 24.9777 33.3118 24.9777 35.9702V35.9702ZM23.9464 24.8643C23.9464 22.4759 22.1116 21.9091 20.0759 21.9091H14.7723V27.9545H20.4911C22.5134 27.9545 23.9464 27.0639 23.9464 24.8643V24.8643ZM41.6652 27.995C39.2143 27.995 37.5804 29.5334 37.4196 32.0028H45.75C45.5223 29.5064 44.2366 27.995 41.6652 27.995ZM60 7.22727V54.7273C60 58.3033 57.1205 61.2045 53.5714 61.2045H6.42857C2.87946 61.2045 0 58.3033 0 54.7273V7.22727C0 3.65128 2.87946 0.75 6.42857 0.75H53.5714C57.1205 0.75 60 3.65128 60 7.22727ZM36.3884 21.3963H46.808V18.8459H36.3884V21.3963ZM30.6295 36.2805C30.6295 33.0284 29.1027 30.2216 25.942 29.3175C28.2455 28.2109 29.4509 26.929 29.4509 24.3246C29.4509 19.1697 25.6339 17.9148 21.2277 17.9148H9.10714V43.8239H21.5759C26.25 43.7969 30.6295 41.5433 30.6295 36.2805V36.2805ZM50.8929 34.2834C50.8929 28.7372 47.6652 24.1087 41.8393 24.1087C36.1607 24.1087 32.317 28.3999 32.317 34.0405C32.317 39.8835 35.9732 43.8913 41.8393 43.8913C46.2857 43.8913 49.1652 41.8807 50.558 37.576H46.0446C45.5491 39.1818 43.5536 40.0185 42 40.0185C39 40.0185 37.433 38.2507 37.433 35.255H50.8527C50.8661 34.9446 50.8929 34.6072 50.8929 34.2834Z" fill="#B9236A"/>
</svg>
