<svg width="60" height="60" viewBox="0 0 60 60" fill="none" xmlns="http://www.w3.org/2000/svg">
<path fill-rule="evenodd" clip-rule="evenodd" d="M30 0C13.425 0 0 13.6284 0 30.4545C0 43.9307 8.5875 55.3131 20.5125 59.3483C22.0125 59.6148 22.575 58.7011 22.575 57.9017C22.575 57.1784 22.5375 54.7801 22.5375 52.2295C15 53.6381 13.05 50.3642 12.45 48.6511C12.1125 47.7756 10.65 45.0727 9.375 44.3494C8.325 43.7784 6.825 42.3699 9.3375 42.3318C11.7 42.2938 13.3875 44.5398 13.95 45.4534C16.65 50.0597 20.9625 48.7653 22.6875 47.9659C22.95 45.9864 23.7375 44.654 24.6 43.8926C17.925 43.1312 10.95 40.5045 10.95 28.8557C10.95 25.5437 12.1125 22.8028 14.025 20.671C13.725 19.9097 12.675 16.7881 14.325 12.6006C14.325 12.6006 16.8375 11.8011 22.575 15.7222C24.975 15.0369 27.525 14.6943 30.075 14.6943C32.625 14.6943 35.175 15.0369 37.575 15.7222C43.3125 11.7631 45.825 12.6006 45.825 12.6006C47.475 16.7881 46.425 19.9097 46.125 20.671C48.0375 22.8028 49.2 25.5057 49.2 28.8557C49.2 40.5426 42.1875 43.1312 35.5125 43.8926C36.6 44.8443 37.5375 46.6716 37.5375 49.5267C37.5375 53.6 37.5 56.8739 37.5 57.9017C37.5 58.7011 38.0625 59.6528 39.5625 59.3483C45.5179 57.3071 50.6929 53.4215 54.3592 48.2384C58.0254 43.0552 59.9982 36.8355 60 30.4545C60 13.6284 46.575 0 30 0Z" fill="#B9236A"/>
</svg>
