<svg width="75" height="75" viewBox="0 0 75 75" fill="none" xmlns="http://www.w3.org/2000/svg">
<g filter="url(#filter0_b_328_16)">
<circle cx="37.5" cy="37.5" r="37.5" fill="white" fill-opacity="0.16"/>
<circle cx="37.5" cy="37.5" r="37" stroke="white" stroke-opacity="0.15"/>
</g>
<path fill-rule="evenodd" clip-rule="evenodd" d="M38 12C24.1875 12 13 23.357 13 37.3788C13 48.6089 20.1562 58.0942 30.0937 61.4569C31.3437 61.679 31.8125 60.9176 31.8125 60.2514C31.8125 59.6487 31.7812 57.6501 31.7812 55.5246C25.5 56.6984 23.875 53.9702 23.375 52.5426C23.0937 51.813 21.875 49.5606 20.8125 48.9579C19.9375 48.482 18.6875 47.3082 20.7812 47.2765C22.75 47.2448 24.1562 49.1165 24.625 49.8778C26.875 53.7164 30.4687 52.6378 31.9062 51.9716C32.125 50.322 32.7812 49.2116 33.5 48.5772C27.9375 47.9427 22.125 45.7538 22.125 36.0464C22.125 33.2865 23.0937 31.0024 24.6875 29.2259C24.4375 28.5914 23.5625 25.9901 24.9375 22.5005C24.9375 22.5005 27.0312 21.8343 31.8125 25.1018C33.8125 24.5308 35.9375 24.2453 38.0625 24.2453C40.1875 24.2453 42.3125 24.5308 44.3125 25.1018C49.0937 21.8026 51.1875 22.5005 51.1875 22.5005C52.5625 25.9901 51.6875 28.5914 51.4375 29.2259C53.0313 31.0024 54 33.2547 54 36.0464C54 45.7855 48.1562 47.9427 42.5937 48.5772C43.5 49.3703 44.2812 50.893 44.2812 53.2723C44.2812 56.6667 44.25 59.3949 44.25 60.2514C44.25 60.9176 44.7187 61.7107 45.9687 61.4569C50.9316 59.7559 55.2441 56.518 58.2993 52.1987C61.3545 47.8794 62.9985 42.6962 63 37.3788C63 23.357 51.8125 12 38 12Z" fill="white"/>
<defs>
<filter id="filter0_b_328_16" x="-25" y="-25" width="125" height="125" filterUnits="userSpaceOnUse" color-interpolation-filters="sRGB">
<feFlood flood-opacity="0" result="BackgroundImageFix"/>
<feGaussianBlur in="BackgroundImageFix" stdDeviation="12.5"/>
<feComposite in2="SourceAlpha" operator="in" result="effect1_backgroundBlur_328_16"/>
<feBlend mode="normal" in="SourceGraphic" in2="effect1_backgroundBlur_328_16" result="shape"/>
</filter>
</defs>
</svg>
