<svg width="75" height="75" viewBox="0 0 75 75" fill="none" xmlns="http://www.w3.org/2000/svg">
<g filter="url(#filter0_b_329_2)">
<circle cx="37.5" cy="37.5" r="37.5" fill="white" fill-opacity="0.16"/>
<circle cx="37.5" cy="37.5" r="37" stroke="white" stroke-opacity="0.15"/>
</g>
<path d="M18 20.865C18 19.2825 19.315 18 20.9375 18H55.0625C56.685 18 58 19.2825 58 20.865V55.135C58 56.7175 56.685 58 55.0625 58H20.9375C19.315 58 18 56.7175 18 55.135V20.865ZM30.3575 51.485V33.4225H24.355V51.485H30.3575ZM27.3575 30.955C29.45 30.955 30.7525 29.57 30.7525 27.835C30.715 26.0625 29.4525 24.715 27.3975 24.715C25.3425 24.715 24 26.065 24 27.835C24 29.57 25.3025 30.955 27.3175 30.955H27.3575V30.955ZM39.6275 51.485V41.3975C39.6275 40.8575 39.6675 40.3175 39.8275 39.9325C40.26 38.855 41.2475 37.7375 42.9075 37.7375C45.08 37.7375 45.9475 39.3925 45.9475 41.8225V51.485H51.95V41.125C51.95 35.575 48.99 32.995 45.04 32.995C41.855 32.995 40.4275 34.745 39.6275 35.9775V36.04H39.5875C39.6008 36.0191 39.6141 35.9983 39.6275 35.9775V33.4225H33.6275C33.7025 35.1175 33.6275 51.485 33.6275 51.485H39.6275Z" fill="white"/>
<defs>
<filter id="filter0_b_329_2" x="-25" y="-25" width="125" height="125" filterUnits="userSpaceOnUse" color-interpolation-filters="sRGB">
<feFlood flood-opacity="0" result="BackgroundImageFix"/>
<feGaussianBlur in="BackgroundImageFix" stdDeviation="12.5"/>
<feComposite in2="SourceAlpha" operator="in" result="effect1_backgroundBlur_329_2"/>
<feBlend mode="normal" in="SourceGraphic" in2="effect1_backgroundBlur_329_2" result="shape"/>
</filter>
</defs>
</svg>
