<svg width="75" height="75" viewBox="0 0 75 75" fill="none" xmlns="http://www.w3.org/2000/svg">
<g filter="url(#filter0_b_329_3)">
<circle cx="37.5" cy="37.5" r="37.5" fill="white" fill-opacity="0.16"/>
<circle cx="37.5" cy="37.5" r="37" stroke="white" stroke-opacity="0.15"/>
</g>
<path d="M56.0002 22.0132C55.8298 21.9956 55.6581 21.9956 55.4877 22.0132H20.4877C20.2634 22.0166 20.0405 22.0503 19.8252 22.1132L37.8877 40.1007L56.0002 22.0132Z" fill="white"/>
<path d="M57.85 23.751L39.65 41.876C39.1816 42.3416 38.548 42.603 37.8875 42.603C37.227 42.603 36.5934 42.3416 36.125 41.876L18.0875 23.8885C18.032 24.0923 18.0026 24.3023 18 24.5135V49.5135C18 50.1765 18.2634 50.8124 18.7322 51.2812C19.2011 51.7501 19.837 52.0135 20.5 52.0135H55.5C56.163 52.0135 56.7989 51.7501 57.2678 51.2812C57.7366 50.8124 58 50.1765 58 49.5135V24.5135C57.9901 24.253 57.9394 23.9958 57.85 23.751V23.751ZM22.2125 49.5135H20.475V47.726L29.5625 38.7135L31.325 40.476L22.2125 49.5135ZM55.475 49.5135H53.725L44.6125 40.476L46.375 38.7135L55.4625 47.726L55.475 49.5135Z" fill="white"/>
<defs>
<filter id="filter0_b_329_3" x="-25" y="-25" width="125" height="125" filterUnits="userSpaceOnUse" color-interpolation-filters="sRGB">
<feFlood flood-opacity="0" result="BackgroundImageFix"/>
<feGaussianBlur in="BackgroundImageFix" stdDeviation="12.5"/>
<feComposite in2="SourceAlpha" operator="in" result="effect1_backgroundBlur_329_3"/>
<feBlend mode="normal" in="SourceGraphic" in2="effect1_backgroundBlur_329_3" result="shape"/>
</filter>
</defs>
</svg>
