<svg width="59" height="45" viewBox="0 0 59 45" fill="none" xmlns="http://www.w3.org/2000/svg">
<path d="M55.3739 0.833473C55.1278 0.808113 54.8797 0.808113 54.6336 0.833473H4.07804C3.75402 0.838465 3.43215 0.88705 3.12109 0.977917L29.2114 26.9599L55.3739 0.833473Z" fill="#B9236A"/>
<path d="M58.0455 3.34326L31.7566 29.5238C31.08 30.1964 30.1648 30.5739 29.2108 30.5739C28.2568 30.5739 27.3415 30.1964 26.6649 29.5238L0.610764 3.54187C0.530668 3.83625 0.4882 4.13959 0.484375 4.44465V40.5558C0.484375 41.5135 0.86483 42.432 1.54204 43.1092C2.21926 43.7864 3.13776 44.1669 4.09549 44.1669H54.651C55.6088 44.1669 56.5273 43.7864 57.2045 43.1092C57.8817 42.432 58.2621 41.5135 58.2621 40.5558V4.44465C58.2478 4.06847 58.1747 3.69685 58.0455 3.34326V3.34326ZM6.5691 40.5558H4.05938V37.9738L17.1858 24.9558L19.7316 27.5016L6.5691 40.5558ZM54.6149 40.5558H52.0871L38.9246 27.5016L41.4705 24.9558L54.5969 37.9738L54.6149 40.5558Z" fill="#B9236A"/>
</svg>
