<svg width="89" height="100" viewBox="0 0 89 100" fill="none" xmlns="http://www.w3.org/2000/svg">
<path d="M8.21023 89.8348L0.138672 0H88.8612L80.7788 89.8206L44.446 99.8125L8.21023 89.8348Z" fill="#1572B6"/>
<path d="M44.5 92.1769L73.8609 84.1027L80.7681 7.34692H44.5V92.1769Z" fill="#33A9DC"/>
<path d="M44.5 39.8928H59.1984L60.2119 28.6104H44.5V17.5918H72.3516L72.0856 20.547L69.358 50.9114H44.5V39.8928V39.8928Z" fill="white"/>
<path d="M44.5681 68.507L44.5178 68.5212L32.1481 65.206L31.3575 56.4189H20.2061L21.7622 73.7186L44.5142 79.9854L44.5681 79.9711V68.507V68.507Z" fill="#EBEBEB"/>
<path d="M58.2529 50.4446L56.916 65.199L44.5283 68.5142V79.9784L67.2983 73.7187L67.4672 71.8579L69.3971 50.4446H58.2529V50.4446Z" fill="white"/>
<path d="M44.5393 17.5918V28.6104H17.7084L17.4855 26.1329L16.9788 20.547L16.7129 17.5918H44.5393V17.5918ZM44.4998 39.8928V50.9114H32.2846L32.0618 48.4339L31.5587 42.8479L31.2927 39.8928H44.4998V39.8928Z" fill="#EBEBEB"/>
</svg>
