<svg width="109" height="109" viewBox="0 0 109 109" fill="none" xmlns="http://www.w3.org/2000/svg">
<path d="M20.1036 92.6534L12.4531 6.8125H96.5466L88.886 92.6398L54.4488 102.188L20.1036 92.6534Z" fill="#1572B6"/>
<path d="M54.5 94.8913L82.3291 87.1761L88.8759 13.8328H54.5V94.8913Z" fill="#33A9DC"/>
<path d="M54.5 44.9318H68.4316L69.3921 34.151H54.5V23.6223H80.8984L80.6464 26.4461L78.061 55.4605H54.5V44.9318Z" fill="white"/>
<path d="M54.5646 72.2737L54.5169 72.2874L42.7926 69.1196L42.0432 60.7231H31.4736L32.9485 77.2537L54.5135 83.2419L54.5646 83.2282V72.2737Z" fill="#EBEBEB"/>
<path d="M67.5358 55.0144L66.2687 69.1129L54.5273 72.2807V83.2352L76.1093 77.2538L76.2694 75.4758L78.0986 55.0144H67.5358Z" fill="white"/>
<path d="M54.5377 23.6223V34.151H29.1066L28.8954 31.7837L28.4151 26.4461L28.1631 23.6223H54.5377ZM54.5002 44.9318V55.4605H42.9224L42.7112 53.0932L42.2343 47.7556L41.9822 44.9318H54.5002Z" fill="#EBEBEB"/>
</svg>
