<svg width="100" height="100" viewBox="0 0 100 100" fill="none" xmlns="http://www.w3.org/2000/svg">
<g clip-path="url(#clip0_294_16)">
<path d="M35.0029 95C43.2812 95 49.9999 88.28 49.9999 80V65H35.0029C26.7245 65 20.0059 71.72 20.0059 80C20.0059 88.28 26.7245 95 35.0029 95Z" fill="#0ACF83"/>
<path d="M20.0059 50C20.0059 41.72 26.7245 35 35.0029 35H49.9999V65H35.0029C26.7245 65 20.0059 58.28 20.0059 50Z" fill="#A259FF"/>
<path d="M20.0059 20C20.0059 11.72 26.7245 5 35.0029 5H49.9999V35H35.0029C26.7245 35 20.0059 28.28 20.0059 20Z" fill="#F24E1E"/>
<path d="M50 5H64.997C73.2753 5 79.994 11.72 79.994 20C79.994 28.28 73.2753 35 64.997 35H50V5Z" fill="#FF7262"/>
<path d="M79.994 50C79.994 58.28 73.2753 65 64.997 65C56.7187 65 50 58.28 50 50C50 41.72 56.7187 35 64.997 35C73.2753 35 79.994 41.72 79.994 50Z" fill="#1ABCFE"/>
</g>
<defs>
<clipPath id="clip0_294_16">
<rect width="60" height="90" fill="white" transform="translate(20 5)"/>
</clipPath>
</defs>
</svg>
