<svg width="26" height="39" viewBox="0 0 26 39" fill="none" xmlns="http://www.w3.org/2000/svg">
<g clip-path="url(#clip0_264_6)">
<path d="M6.50163 39C10.0889 39 13.0003 36.088 13.0003 32.5V26H6.50163C2.91435 26 0.00292969 28.912 0.00292969 32.5C0.00292969 36.088 2.91435 39 6.50163 39Z" fill="#0ACF83"/>
<path d="M0.00292969 19.5C0.00292969 15.912 2.91435 13 6.50163 13H13.0003V26H6.50163C2.91435 26 0.00292969 23.088 0.00292969 19.5Z" fill="#A259FF"/>
<path d="M0.00292969 6.5C0.00292969 2.912 2.91435 0 6.50163 0H13.0003V13H6.50163C2.91435 13 0.00292969 10.088 0.00292969 6.5Z" fill="#F24E1E"/>
<path d="M13 0H19.4987C23.086 0 25.9974 2.912 25.9974 6.5C25.9974 10.088 23.086 13 19.4987 13H13V0Z" fill="#FF7262"/>
<path d="M25.9974 19.5C25.9974 23.088 23.086 26 19.4987 26C15.9114 26 13 23.088 13 19.5C13 15.912 15.9114 13 19.4987 13C23.086 13 25.9974 15.912 25.9974 19.5Z" fill="#1ABCFE"/>
</g>
<defs>
<clipPath id="clip0_264_6">
<rect width="26" height="39" fill="white"/>
</clipPath>
</defs>
</svg>
