<svg width="84" height="100" viewBox="0 0 84 100" fill="none" xmlns="http://www.w3.org/2000/svg">
<path d="M83.9999 0L76.4096 89.9897L42.2908 100L8.26602 90.0035L0.683594 0H83.9999Z" fill="#E44D26"/>
<path d="M42.3418 92.3485L69.9115 84.2596L76.3976 7.35913H42.3418V92.3485Z" fill="#F16529"/>
<path d="M27.5865 29.4365H42.3418V18.3979H16.1875L16.437 21.3594L19.0007 51.7787H42.3418V40.7402H28.5398L27.5865 29.4365V29.4365ZM29.9372 57.2982H19.4668L20.9279 74.6304L42.2938 80.9072L42.3418 80.8934V69.4086L42.296 69.4214L30.6799 66.1019L29.9372 57.2982Z" fill="#EBEBEB"/>
<path d="M42.305 51.7787H55.1488L53.9378 66.095L42.3047 69.4179V80.902L63.6875 74.6304L63.8442 72.7654L66.2956 43.7044L66.55 40.7402H42.305V51.7787ZM42.305 29.4096V29.4365H67.4991L67.7081 26.9555L68.1836 21.3594L68.4328 18.3979H42.305V29.4099V29.4096Z" fill="white"/>
</svg>
