<svg width="89" height="102" viewBox="0 0 89 102" fill="none" xmlns="http://www.w3.org/2000/svg">
<path d="M88.8414 0.600098L80.7622 91.1084L44.4456 101.176L8.22907 91.1223L0.158203 0.600098H88.8414Z" fill="#E44D26"/>
<path d="M44.5 93.4806L73.8457 85.3451L80.7495 8.00146H44.5V93.4806Z" fill="#F16529"/>
<path d="M28.7944 30.2062H44.5002V19.104H16.6611L16.9267 22.0825L19.6556 52.6772H44.5002V41.575H29.8091L28.7944 30.2062V30.2062ZM31.2966 58.2284H20.1517L21.7069 75.6606L44.4491 81.9735L44.5002 81.9596V70.4086L44.4515 70.4215L32.0871 67.0829L31.2966 58.2284Z" fill="#EBEBEB"/>
<path d="M44.4613 52.6772H58.1324L56.8434 67.0759L44.4609 70.418V81.9683L67.2212 75.6606L67.388 73.7848L69.9973 44.5562L70.2681 41.575H44.4613V52.6772ZM44.4613 30.1791V30.2062H71.2783L71.5008 27.7109L72.0069 22.0825L72.2722 19.104H44.4613V30.1794V30.1791Z" fill="white"/>
</svg>
