<svg width="89" height="89" viewBox="0 0 89 89" fill="none" xmlns="http://www.w3.org/2000/svg">
<g clip-path="url(#clip0_201_128)">
<path d="M0 0H89V89H0V0Z" fill="#F7DF1E"/>
<path d="M23.4017 74.3748L30.2123 70.253C31.5264 72.5827 32.7217 74.5539 35.5888 74.5539C38.337 74.5539 40.0701 73.4789 40.0701 69.2973V40.8597H48.4337V69.4155C48.4337 78.0781 43.3558 82.0212 35.9472 82.0212C29.2566 82.0212 25.3729 78.5561 23.4014 74.3741M52.9765 73.4786L59.7864 69.5358C61.5792 72.4634 63.9092 74.614 68.031 74.614C71.4968 74.614 73.7065 72.8813 73.7065 70.4915C73.7065 67.624 71.4363 66.6082 67.6128 64.936L65.5224 64.039C59.4881 61.4709 55.4855 58.2446 55.4855 51.434C55.4855 45.1609 60.2648 40.3813 67.7328 40.3813C73.0498 40.3813 76.8733 42.2337 79.6212 47.0727L73.1089 51.255C71.6748 48.6862 70.1222 47.6707 67.7324 47.6707C65.2828 47.6707 63.7295 49.224 63.7295 51.255C63.7295 53.764 65.2828 54.7802 68.8672 56.3336L70.958 57.2295C78.0675 60.2767 82.0701 63.383 82.0701 70.3723C82.0701 77.9004 76.1558 82.0222 68.2101 82.0222C60.4438 82.0222 55.4254 78.3183 52.9761 73.4789" fill="black"/>
</g>
<defs>
<clipPath id="clip0_201_128">
<rect width="89" height="89" fill="white"/>
</clipPath>
</defs>
</svg>
