<svg width="89" height="89" viewBox="0 0 89 89" fill="none" xmlns="http://www.w3.org/2000/svg">
<g clip-path="url(#clip0_201_128)">
<path d="M0 15C0 6.71573 6.71573 0 15 0H74C82.2843 0 89 6.71573 89 15V74C89 82.2843 82.2843 89 74 89H15C6.71573 89 0 82.2843 0 74V15Z" fill="#F7DF1E"/>
<path d="M24 74.9935L30.8106 70.8717C32.1247 73.2013 33.32 75.1725 36.1871 75.1725C38.9353 75.1725 40.6684 74.0976 40.6684 69.916V41.4784H49.0319V70.0342C49.0319 78.6967 43.9541 82.6398 36.5455 82.6398C29.8549 82.6398 25.9716 79.1754 24 74.9935ZM53.5748 74.0972L60.3847 70.1545C62.1775 73.0821 64.5075 75.2327 68.6293 75.2327C72.0951 75.2327 74.3048 73.4999 74.3048 71.1102C74.3048 68.2427 72.0346 67.2268 68.2111 65.5546L66.1206 64.6577C60.0864 62.0895 56.0838 58.8633 56.0838 52.0527C56.0838 45.7796 60.863 41 68.331 41C73.6481 41 77.4716 42.8523 80.2195 47.6913L73.7072 51.8736C72.2731 49.3048 70.7205 48.2893 68.3307 48.2893C65.8811 48.2893 64.3278 49.8426 64.3278 51.8736C64.3278 54.3827 65.8811 55.3989 69.4654 56.9522L71.5562 57.8481C78.6658 60.8953 82.6684 64.0016 82.6684 70.9909C82.6684 78.5191 76.7541 82.6409 68.8084 82.6409C61.0421 82.6409 56.024 78.9366 53.5748 74.0972Z" fill="black"/>
</g>
<defs>
<clipPath id="clip0_201_128">
<rect width="89" height="89" fill="white"/>
</clipPath>
</defs>
</svg>
