<svg width="87" height="85" viewBox="0 0 87 85" fill="none" xmlns="http://www.w3.org/2000/svg">
<g clip-path="url(#clip0_294_2)">
<path d="M72.5566 0H14.4434C6.46651 0 0 6.46651 0 14.4434V70.3816C0 78.3585 6.46651 84.825 14.4434 84.825H72.5566C80.5335 84.825 87 78.3585 87 70.3816V14.4434C87 6.46651 80.5335 0 72.5566 0Z" fill="white"/>
<path d="M19.5898 59.4845V22.1907C19.5898 21.9188 19.7067 21.7822 19.9402 21.7822L20.3096 21.7812L20.9411 21.7744L21.8185 21.757L24.7582 21.6949L27.9102 21.6364C29.0188 21.6174 30.1179 21.6072 31.2074 21.6072C34.164 21.6072 36.6541 21.9769 38.6778 22.7161C40.5034 23.3336 42.1682 24.3504 43.5512 25.6924C44.7236 26.8558 45.6296 28.2597 46.2067 29.8073C46.7527 31.3132 47.0294 32.9034 47.0241 34.5053C47.0241 37.6186 46.3039 40.1864 44.8644 42.2092C43.4563 44.1826 41.4923 45.6917 39.223 46.5442L39.0282 46.6156C36.6585 47.4995 34.0342 47.819 31.1561 47.839L30.7089 47.8404L30.0451 47.837L29.7104 47.8322L29.3372 47.8234L29.1123 47.8146L28.9756 47.8074L28.6395 47.7952L28.2287 47.7867L27.6102 47.7823L27.4725 47.7819V59.426C27.4827 59.4974 27.4762 59.5702 27.4534 59.6386C27.4306 59.707 27.3922 59.7692 27.3412 59.8201C27.2903 59.8711 27.2281 59.9095 27.1597 59.9323C27.0913 59.9551 27.0185 59.9616 26.9471 59.9514H19.9987C19.7258 59.9514 19.5898 59.7964 19.5898 59.4845V59.4845ZM27.4729 28.7857V40.9494C27.9386 40.987 28.4057 41.0065 28.873 41.0078H30.7992C32.1273 41.0034 33.4476 40.8057 34.7187 40.4209L34.9722 40.3417C36.1285 39.9983 37.1618 39.3296 37.9489 38.4155C38.6802 37.553 39.0592 36.3646 39.0853 34.8499L39.087 34.6803C39.1176 33.5513 38.824 32.4373 38.2405 31.4705C37.6272 30.5354 36.7408 29.8119 35.7018 29.3984C34.3452 28.8712 32.896 28.6231 31.4412 28.6691L30.701 28.6712L30.2341 28.6752L29.7886 28.681L29.1598 28.6933L28.7011 28.7062L28.4628 28.715L28.1444 28.73L27.8732 28.7466L27.7186 28.7588L27.585 28.7718L27.5262 28.7786L27.4729 28.7857V28.7857ZM69.5897 38.7377C68.5716 38.2145 67.4917 37.8215 66.3755 37.5679L66.1172 37.5122C64.8892 37.2304 63.6355 37.0752 62.3758 37.049L62.0611 37.0453C61.3227 37.0253 60.5853 37.1138 59.8725 37.308C59.4188 37.4088 59.0154 37.6672 58.7341 38.0373C58.5439 38.3333 58.4427 38.6777 58.4425 39.0296C58.4531 39.3709 58.5762 39.699 58.7925 39.9632C59.1023 40.3254 59.4747 40.629 59.8919 40.8593L60.0183 40.9263C60.8505 41.3743 61.7078 41.7737 62.5862 42.1225C64.5449 42.7782 66.4165 43.67 68.1596 44.7781C69.3473 45.5276 70.3301 46.5605 71.0198 47.784C71.5995 48.9423 71.8899 50.2238 71.866 51.5189C71.9009 53.2292 71.4121 54.9094 70.4651 56.3341C69.4514 57.7801 68.0433 58.9043 66.4088 59.5728C64.697 60.3252 62.5947 60.7137 60.1023 60.7392L59.8433 60.7405C58.2982 60.7562 56.7552 60.6209 55.2364 60.3368L54.9115 60.2736C53.6327 60.0391 52.3879 59.6469 51.2055 59.1062C51.0867 59.0449 50.9863 58.9531 50.9145 58.8402C50.8427 58.7274 50.8022 58.5975 50.797 58.4639V52.1027C50.79 52.041 50.7999 51.9785 50.8257 51.9219C50.8514 51.8654 50.892 51.8169 50.9431 51.7816C50.9933 51.7532 51.0508 51.7409 51.1081 51.7461C51.1654 51.7513 51.2198 51.7739 51.264 51.8108C52.6602 52.6341 54.1764 53.2347 55.7577 53.5909C57.1516 53.9403 58.5814 54.1265 60.0183 54.1455C61.3798 54.1455 62.3816 53.9702 63.0239 53.6201C63.3139 53.4874 63.5593 53.2734 63.7302 53.0041C63.9011 52.7348 63.9904 52.4217 63.987 52.1027C63.987 51.5977 63.6951 51.1111 63.1116 50.6438C62.8669 50.448 62.5158 50.2349 62.0591 50.0049L61.8406 49.8975L61.6074 49.7877L61.4851 49.732L61.2289 49.6185C61.1844 49.5991 61.1399 49.5798 61.0953 49.5607L60.8166 49.4438L60.6715 49.3843L60.3704 49.2637L60.2141 49.2025L59.8902 49.0778L59.5514 48.951C57.7188 48.3132 55.9812 47.4297 54.3861 46.3247C53.2453 45.5313 52.306 44.482 51.6432 43.2607C51.0693 42.1106 50.7791 40.8398 50.797 39.5547C50.7938 38.0105 51.2179 36.4955 52.0225 35.1775C52.9401 33.7263 54.2573 32.5709 55.8162 31.8511C57.528 30.9957 59.6676 30.5675 62.2358 30.5668C63.74 30.5547 65.2427 30.6621 66.7299 30.888C67.8068 31.0245 68.8596 31.3093 69.8585 31.7342C70.0193 31.7804 70.1487 31.899 70.2086 32.0553C70.2483 32.1977 70.2677 32.3449 70.267 32.4931V38.3876C70.2755 38.527 70.2086 38.6605 70.092 38.7377C70.014 38.7765 69.928 38.7967 69.8408 38.7967C69.7537 38.7967 69.6677 38.7765 69.5897 38.7377V38.7377Z" fill="#10192D"/>
</g>
<defs>
<clipPath id="clip0_294_2">
<rect width="87" height="84.9609" fill="white"/>
</clipPath>
</defs>
</svg>
