<svg width="84" height="83" viewBox="0 0 84 83" fill="none" xmlns="http://www.w3.org/2000/svg">
<path d="M70.0547 0H13.9453C6.24353 0 0 6.24353 0 13.9453V67.9547C0 75.6565 6.24353 81.9 13.9453 81.9H70.0547C77.7565 81.9 84 75.6565 84 67.9547V13.9453C84 6.24353 77.7565 0 70.0547 0Z" fill="white"/>
<path d="M18.9141 57.4335V21.4257C18.9141 21.1632 19.0269 21.0313 19.2524 21.0313L19.609 21.0303L20.2187 21.0237L21.0659 21.007L23.9042 20.947L26.9475 20.8905C28.0179 20.8721 29.079 20.8623 30.131 20.8623C32.9857 20.8623 35.3899 21.2193 37.3439 21.933C39.1064 22.5292 40.7139 23.5109 42.0492 24.8067C43.1811 25.93 44.0559 27.2855 44.6131 28.7796C45.1403 30.2336 45.4074 31.769 45.4023 33.3156C45.4023 36.3216 44.707 38.8009 43.317 40.7539C41.9576 42.6592 40.0613 44.1164 37.8702 44.9395L37.6822 45.0084C35.3941 45.8618 32.8604 46.1703 30.0815 46.1896L29.6497 46.1909L29.0088 46.1876L28.6856 46.1831L28.3253 46.1745L28.1081 46.166L27.9762 46.1591L27.6517 46.1473L27.255 46.1391L26.6578 46.1348L26.5249 46.1345V57.377C26.5348 57.446 26.5285 57.5162 26.5065 57.5823C26.4845 57.6483 26.4474 57.7083 26.3982 57.7576C26.3489 57.8068 26.2889 57.8439 26.2229 57.8659C26.1568 57.8879 26.0866 57.8942 26.0176 57.8843H19.3088C19.0453 57.8843 18.9141 57.7347 18.9141 57.4335V57.4335ZM26.5252 27.7933V39.5375C26.975 39.5738 27.4259 39.5927 27.8771 39.594H29.7369C31.0192 39.5897 32.294 39.3988 33.5212 39.0273L33.766 38.9509C34.8825 38.6192 35.8801 37.9737 36.64 37.091C37.3462 36.2583 37.712 35.1108 37.7373 33.6484L37.7389 33.4846C37.7685 32.3946 37.485 31.319 36.9216 30.3855C36.3295 29.4827 35.4736 28.7841 34.4705 28.3849C33.1606 27.8758 31.7614 27.6363 30.3568 27.6807L29.6421 27.6827L29.1913 27.6866L28.7611 27.6922L28.1541 27.704L27.7111 27.7165L27.4811 27.725L27.1736 27.7395L26.9118 27.7556L26.7625 27.7674L26.6335 27.7798L26.5768 27.7864L26.5252 27.7933V27.7933ZM67.1898 37.4021C66.2068 36.897 65.1641 36.5175 64.0864 36.2727L63.837 36.2189C62.6513 35.9468 61.4409 35.7969 60.2247 35.7716L59.9208 35.768C59.2078 35.7487 58.4959 35.8342 57.8077 36.0217C57.3696 36.1191 56.9801 36.3686 56.7085 36.7258C56.5249 37.0117 56.4271 37.3442 56.427 37.684C56.4372 38.0134 56.5561 38.3303 56.7649 38.5853C57.064 38.9351 57.4235 39.2282 57.8264 39.4506L57.9485 39.5152C58.7519 39.9478 59.5797 40.3335 60.4278 40.6702C62.3189 41.3033 64.126 42.1643 65.809 43.2342C66.9558 43.9579 67.9047 44.9552 68.5705 46.1365C69.1303 47.2548 69.4106 48.4922 69.3876 49.7426C69.4213 51.3939 68.9494 53.0162 68.035 54.3918C67.0562 55.7879 65.6967 56.8733 64.1185 57.5188C62.4658 58.2453 60.436 58.6203 58.0295 58.6449L57.7795 58.6462C56.2876 58.6613 54.7979 58.5308 53.3314 58.2564L53.0177 58.1954C51.783 57.9689 50.5811 57.5904 49.4395 57.0683C49.3248 57.009 49.2278 56.9204 49.1586 56.8115C49.0893 56.7025 49.0501 56.5771 49.0451 56.4481V50.3063C49.0384 50.2467 49.0479 50.1863 49.0728 50.1317C49.0976 50.0771 49.1368 50.0303 49.1862 49.9962C49.2346 49.9689 49.2902 49.9569 49.3455 49.9619C49.4008 49.967 49.4533 49.9888 49.496 50.0244C50.8441 50.8194 52.308 51.3992 53.8348 51.7431C55.1806 52.0805 56.5611 52.2602 57.9485 52.2786C59.2629 52.2786 60.2302 52.1093 60.8504 51.7714C61.1304 51.6432 61.3673 51.4366 61.5324 51.1765C61.6974 50.9165 61.7835 50.6142 61.7803 50.3063C61.7803 49.8187 61.4985 49.3488 60.9351 48.8976C60.6988 48.7086 60.3599 48.5029 59.9189 48.2808L59.7079 48.1771L59.4828 48.0711L59.3647 48.0173L59.1173 47.9077C59.0743 47.8889 59.0313 47.8704 58.9883 47.8519L58.7192 47.739L58.5791 47.6816L58.2884 47.5651L58.1375 47.5061L57.8248 47.3856L57.4976 47.2632C55.7282 46.6474 54.0505 45.7944 52.5105 44.7275C51.409 43.9614 50.5021 42.9483 49.8622 41.7691C49.308 40.6587 49.0278 39.4318 49.0451 38.1909C49.042 36.7 49.4515 35.2372 50.2283 33.9647C51.1143 32.5636 52.3861 31.4479 53.8912 30.753C55.544 29.9271 57.6098 29.5136 60.0895 29.513C61.5418 29.5013 62.9927 29.605 64.4286 29.8231C65.4683 29.9549 66.4849 30.2299 67.4493 30.6401C67.6045 30.6847 67.7295 30.7992 67.7873 30.9502C67.8257 31.0877 67.8444 31.2297 67.8437 31.3728V37.0641C67.8519 37.1987 67.7873 37.3276 67.6748 37.4021C67.5994 37.4396 67.5164 37.4591 67.4323 37.4591C67.3481 37.4591 67.2651 37.4396 67.1898 37.4021V37.4021Z" fill="#10192D"/>
</svg>
