<svg width="116" height="102" viewBox="0 0 116 102" fill="none" xmlns="http://www.w3.org/2000/svg">
<path d="M58.1888 61.1321C63.8413 61.1321 68.4236 56.5498 68.4236 50.8973C68.4236 45.2448 63.8413 40.6626 58.1888 40.6626C52.5364 40.6626 47.9541 45.2448 47.9541 50.8973C47.9541 56.5498 52.5364 61.1321 58.1888 61.1321Z" fill="#00D8FF"/>
<path d="M58.1896 74.3633C45.888 74.6609 33.6172 73.0027 21.8358 69.4507C16.3934 67.7254 11.3174 65.0077 6.86437 61.4348C5.16512 60.2142 3.75003 58.6405 2.7162 56.8216C1.68237 55.0027 1.05427 52.9816 0.875 50.8971C0.875 44.1299 8.30952 37.4978 20.7632 33.1583C32.8595 29.3131 45.4982 27.4495 58.1896 27.6397C70.7116 27.4647 83.181 29.2946 95.1247 33.06C100.366 34.731 105.27 37.3173 109.609 40.6992C111.279 41.8629 112.673 43.3796 113.692 45.1419C114.711 46.9042 115.329 48.869 115.504 50.8971C115.504 57.9304 107.194 65.0579 93.8065 69.4875C82.2532 72.9238 70.2413 74.5682 58.1896 74.3633V74.3633ZM58.1896 32.536C46.0475 32.3737 33.9571 34.1453 22.3721 37.7844C10.9091 41.7841 5.7713 47.2535 5.7713 50.8848C5.7713 54.684 11.294 60.657 23.4201 64.8041C34.6909 68.1851 46.4262 69.7589 58.1896 69.467C69.7197 69.6732 81.2133 68.1131 92.2713 64.8409C104.86 60.6693 110.591 54.6881 110.591 50.8971C110.385 49.5962 109.911 48.3522 109.199 47.2438C108.487 46.1354 107.554 45.1866 106.457 44.4574C102.575 41.4572 98.1939 39.165 93.5158 37.6861C82.0899 34.0989 70.1641 32.3602 58.1896 32.536V32.536Z" fill="#00D8FF"/>
<path d="M34.9348 101.944C33.025 101.988 31.1377 101.525 29.4654 100.601C23.6029 97.2197 21.5723 87.4681 24.0328 74.5109C26.7456 62.1108 31.446 50.2312 37.952 39.332C44.0549 28.3976 51.8679 18.5101 61.0948 10.0443C65.1607 6.33807 69.8511 3.38161 74.9486 1.31197C76.7923 0.447907 78.8035 0 80.8397 0C82.8759 0 84.8871 0.447907 86.7308 1.31197C92.8266 4.82453 94.8449 15.5833 91.9997 29.392C89.2031 41.1192 84.6248 52.3483 78.4243 62.6877C72.5362 73.4929 64.9692 83.2944 56.0061 91.7257C51.7926 95.5772 46.9026 98.6155 41.5833 100.687C39.4537 101.478 37.2059 101.903 34.9348 101.944V101.944ZM42.1933 41.7638C35.9873 52.2005 31.4823 63.5585 28.8472 75.4115C26.5833 87.3452 28.7571 94.5218 31.9176 96.3477C35.1927 98.2432 43.1431 96.446 52.7965 88.0125C61.3528 79.9351 68.5753 70.5529 74.1953 60.215C80.1353 50.3303 84.527 39.5946 87.218 28.3808C89.8954 15.3827 87.5823 7.42416 84.299 5.53278C83.0685 5.06127 81.7534 4.8502 80.4371 4.91292C79.1208 4.97563 77.8318 5.31077 76.6516 5.89713C72.1143 7.76946 67.9428 10.4276 64.329 13.7492C55.5135 21.8584 48.0504 31.3241 42.222 41.7883L42.1933 41.7638Z" fill="#00D8FF"/>
<path d="M81.4304 101.997C75.8832 101.997 68.8376 98.64 61.5013 92.3313C52.1128 83.7885 44.1677 73.7835 37.9737 62.7038C31.5493 51.9547 26.8861 40.2469 24.1609 28.0244C22.979 22.647 22.76 17.1026 23.514 11.6488C23.6884 9.62558 24.3044 7.66528 25.3188 5.9061C26.3331 4.14691 27.721 2.63167 29.3847 1.46723C35.4723 -2.05761 45.8012 1.56549 56.343 10.9241C65.1064 19.2028 72.5482 28.7764 78.4091 39.3112C84.8296 49.8094 89.5417 61.2608 92.3693 73.2374C93.6021 78.8121 93.7922 84.5668 92.9302 90.2107C92.7251 92.292 92.0723 94.3045 91.0166 96.1099C89.9609 97.9153 88.5272 99.4711 86.8139 100.671C85.1688 101.582 83.3108 102.04 81.4304 101.997V101.997ZM42.2109 60.2392C48.1529 70.8278 55.7424 80.4032 64.6946 88.6059C73.9017 96.5276 81.2052 98.2306 84.3453 96.3843C87.6204 94.4806 90.0358 86.7104 87.5467 74.138C84.8197 62.7035 80.3 51.7727 74.1556 41.7512C68.5626 31.6684 61.4593 22.5011 53.0924 14.5677C43.1688 5.75764 35.1202 3.78848 31.841 5.68804C30.819 6.51862 29.9802 7.55209 29.3777 8.72321C28.7753 9.89432 28.4222 11.1776 28.3407 12.4921C27.6898 17.356 27.9019 22.2966 28.9671 27.0869C31.5884 38.7755 36.0608 49.9702 42.215 60.2474L42.2109 60.2392Z" fill="#00D8FF"/>
</svg>
