<svg width="113" height="113" viewBox="0 0 113 113" fill="none" xmlns="http://www.w3.org/2000/svg">
<path d="M56.5 65.2363C61.3756 65.2363 65.3281 61.2838 65.3281 56.4082C65.3281 51.5326 61.3756 47.5801 56.5 47.5801C51.6244 47.5801 47.6719 51.5326 47.6719 56.4082C47.6719 61.2838 51.6244 65.2363 56.5 65.2363Z" fill="#00D8FF"/>
<path d="M56.5 76.6493C45.8891 76.9059 35.3047 75.4756 25.1425 72.4118C20.4481 70.9236 16.0698 68.5794 12.2287 65.4976C10.763 64.4447 9.5424 63.0873 8.65065 61.5184C7.75891 59.9494 7.21713 58.2061 7.0625 56.4081C7.0625 50.571 13.4752 44.8503 24.2173 41.1072C34.6512 37.7905 45.5529 36.183 56.5 36.3471C67.301 36.1962 78.0567 37.7746 88.3589 41.0225C92.8799 42.4638 97.1098 44.6947 100.853 47.6118C102.293 48.6155 103.495 49.9238 104.374 51.4439C105.253 52.964 105.787 54.6588 105.938 56.4081C105.938 62.4748 98.7691 68.6227 87.2219 72.4435C77.2564 75.4076 66.8954 76.826 56.5 76.6493ZM56.5 40.5705C46.0267 40.4305 35.5979 41.9586 25.6051 45.0975C15.7176 48.5476 11.2859 53.2653 11.2859 56.3975C11.2859 59.6745 16.0495 64.8266 26.5091 68.4038C36.2309 71.3201 46.3533 72.6776 56.5 72.4259C66.4454 72.6037 76.3595 71.258 85.8977 68.4356C96.7563 64.8372 101.7 59.6781 101.7 56.4081C101.522 55.286 101.113 54.213 100.499 53.2569C99.8851 52.3008 99.0797 51.4825 98.1334 50.8535C94.7849 48.2656 91.0063 46.2884 86.9712 45.0128C77.1155 41.9185 66.8288 40.4189 56.5 40.5705Z" fill="#00D8FF"/>
<path d="M36.4421 100.439C34.7948 100.477 33.1669 100.078 31.7244 99.2812C26.6676 96.3644 24.9161 87.9529 27.0384 76.7765C29.3784 66.0807 33.4328 55.8337 39.0446 46.4325C44.3088 37.0009 51.048 28.4722 59.0068 21.1699C62.5139 17.9731 66.5597 15.423 70.9565 13.6378C72.5469 12.8925 74.2817 12.5061 76.038 12.5061C77.7943 12.5061 79.5291 12.8925 81.1195 13.6378C86.3775 16.6676 88.1184 25.9477 85.6642 37.8586C83.252 47.9741 79.3029 57.6599 73.9546 66.5783C68.8757 75.8985 62.3487 84.3529 54.6174 91.6254C50.983 94.9476 46.7651 97.5683 42.1769 99.3553C40.34 100.037 38.4011 100.404 36.4421 100.439ZM42.703 48.53C37.35 57.5324 33.4641 67.3294 31.1911 77.5534C29.2384 87.847 31.1134 94.0373 33.8396 95.6122C36.6646 97.2472 43.5223 95.697 51.8489 88.4226C59.2294 81.4552 65.4592 73.3625 70.3068 64.4454C75.4304 55.9192 79.2186 46.659 81.5397 36.9864C83.8491 25.7747 81.854 18.9099 79.0219 17.2785C77.9605 16.8718 76.8262 16.6897 75.6908 16.7438C74.5554 16.7979 73.4435 17.087 72.4255 17.5928C68.5118 19.2078 64.9136 21.5005 61.7965 24.3657C54.1925 31.3604 47.7551 39.5251 42.7277 48.5512L42.703 48.53Z" fill="#00D8FF"/>
<path d="M76.547 100.485C71.7622 100.485 65.6849 97.5896 59.3569 92.148C51.2587 84.7792 44.4055 76.1492 39.0628 66.5923C33.5213 57.3205 29.499 47.2218 27.1484 36.6791C26.1289 32.0407 25.94 27.2584 26.5904 22.5541C26.7408 20.809 27.2722 19.1181 28.1471 17.6007C29.0221 16.0833 30.2193 14.7763 31.6543 13.7719C36.9052 10.7315 45.8146 13.8566 54.9075 21.929C62.4665 29.0699 68.8856 37.3278 73.941 46.4147C79.479 55.4701 83.5435 65.3476 85.9825 75.6782C87.0459 80.4867 87.2099 85.4505 86.4663 90.3188C86.2894 92.1141 85.7263 93.8499 84.8157 95.4072C83.9051 96.9645 82.6685 98.3065 81.1906 99.3411C79.7716 100.128 78.169 100.522 76.547 100.485ZM42.7177 64.4665C47.843 73.5998 54.3895 81.8592 62.1113 88.9345C70.0531 95.7675 76.3528 97.2365 79.0613 95.6439C81.8863 94.0019 83.9697 87.2995 81.8227 76.4551C79.4705 66.5921 75.572 57.1635 70.272 48.5194C65.4477 39.8223 59.3207 31.9149 52.1037 25.0719C43.544 17.4726 36.6015 15.7741 33.773 17.4126C32.8914 18.129 32.1679 19.0204 31.6483 20.0306C31.1286 21.0408 30.824 22.1477 30.7538 23.2815C30.1923 27.4769 30.3752 31.7385 31.2941 35.8704C33.5551 45.9526 37.4128 55.6088 42.7212 64.4735L42.7177 64.4665Z" fill="#00D8FF"/>
</svg>
