<svg width="84" height="82" viewBox="0 0 84 82" fill="none" xmlns="http://www.w3.org/2000/svg">
<mask id="mask0_264_21" style="mask-type:alpha" maskUnits="userSpaceOnUse" x="0" y="0" width="84" height="82">
<path d="M59.3316 81.5496C59.9973 81.8051 60.7093 81.923 61.4233 81.896C62.1373 81.869 62.838 81.6977 63.4819 81.3927L80.7066 73.2373C81.5937 72.817 82.3422 72.1588 82.8661 71.3385C83.3899 70.5181 83.6677 69.5689 83.6676 68.6001V13.2998C83.6677 12.331 83.3898 11.3819 82.866 10.5616C82.3422 9.74129 81.5937 9.08317 80.7066 8.66293L63.4822 0.507159C62.5089 0.0463141 61.4141 -0.105423 60.3493 0.0729518C59.2845 0.251326 58.3024 0.75099 57.539 1.50278L24.5642 31.1051L10.2007 20.3767C9.5528 19.8927 8.75317 19.6472 7.94054 19.6828C7.12792 19.7183 6.35358 20.0327 5.75189 20.5713L1.14526 24.6949C-0.373766 26.0544 -0.375407 28.4059 1.14133 29.7676L13.5977 40.9499L1.14133 52.132C-0.375407 53.494 -0.373766 55.8452 1.14526 57.205L5.75189 61.3282C6.35354 61.8669 7.12786 62.1813 7.94048 62.217C8.75311 62.2526 9.55277 62.0071 10.2007 61.5232L24.5642 50.7945L57.539 80.3968C58.0488 80.8993 58.6593 81.2919 59.3316 81.5496V81.5496ZM62.7647 22.2614L37.7443 40.9499L62.7647 59.6382V22.2614V22.2614Z" fill="white"/>
</mask>
<g mask="url(#mask0_264_21)">
<path d="M80.7578 8.67544L63.5196 0.508367C62.546 0.0471496 61.4508 -0.10491 60.3856 0.0732294C59.3204 0.251369 58.3377 0.7509 57.5737 1.5027L1.14194 52.1319C-0.375776 53.4939 -0.373807 55.8451 1.14588 57.2049L5.75546 61.3282C6.35765 61.8669 7.13245 62.1814 7.94555 62.217C8.75864 62.2526 9.55877 62.0071 10.2072 61.5231L78.1639 10.7942C80.4438 9.09254 83.7184 10.6925 83.7184 13.5083V13.3113C83.7184 12.3427 83.4405 11.3938 82.9168 10.5737C82.393 9.75361 81.6447 9.09562 80.7578 8.67544V8.67544Z" fill="#0065A9"/>
<path d="M80.7578 73.224L63.5196 81.3911C62.546 81.8522 61.4509 82.0042 60.3856 81.8261C59.3204 81.6479 58.3378 81.1484 57.5737 80.3967L1.14194 29.7675C-0.375776 28.4058 -0.373807 26.0543 1.14588 24.6948L5.75546 20.5713C6.35769 20.0325 7.13251 19.7181 7.94561 19.6826C8.7587 19.647 9.55881 19.8926 10.2072 20.3766L78.1639 71.1052C80.4438 72.8069 83.7184 71.2069 83.7184 68.3908V68.5881C83.7183 69.5567 83.4405 70.5056 82.9167 71.3257C82.393 72.1458 81.6446 72.8038 80.7578 73.224V73.224Z" fill="#007ACC"/>
<path d="M63.4661 81.3976C62.4923 81.8585 61.397 82.0103 60.3317 81.832C59.2664 81.6537 58.2837 81.1541 57.5195 80.4023C59.449 82.3005 62.7485 80.9559 62.7485 78.2706V3.6393C62.7485 0.953962 59.449 -0.390644 57.5195 1.50795C58.2837 0.756089 59.2663 0.256431 60.3316 0.0780688C61.3969 -0.100293 62.4922 0.0514535 63.4661 0.512324L80.7013 8.6681C81.5887 9.08804 82.3376 9.74606 82.8617 10.5664C83.3859 11.3867 83.6639 12.336 83.6639 13.305V68.6056C83.6639 70.5829 82.5123 72.3856 80.7013 73.2425L63.4661 81.3979V81.3976Z" fill="#1F9CF0"/>
<path d="M59.3316 81.5496C59.9973 81.805 60.7093 81.9229 61.4233 81.8959C62.1373 81.8689 62.838 81.6976 63.4819 81.3927L80.7063 73.2369C81.5935 72.8168 82.3421 72.1587 82.8659 71.3384C83.3898 70.5181 83.6677 69.5689 83.6676 68.6001V13.2998C83.6677 12.331 83.3898 11.3819 82.866 10.5616C82.3422 9.74127 81.5937 9.08314 80.7066 8.6629L63.4816 0.50681C62.5083 0.0460391 61.4136 -0.105657 60.3489 0.0727155C59.2841 0.251088 58.3021 0.750709 57.5386 1.50243L24.5642 31.1051L10.2007 20.3766C9.5528 19.8927 8.75317 19.6472 7.94054 19.6828C7.12792 19.7183 6.35358 20.0327 5.75189 20.5713L1.14526 24.6949C-0.373766 26.0543 -0.375407 28.4059 1.14133 29.7676L13.5977 40.9499L1.14133 52.1319C-0.375407 53.494 -0.373766 55.8452 1.14526 57.205L5.75189 61.3282C6.35354 61.8669 7.12786 62.1813 7.94048 62.2169C8.75311 62.2525 9.55277 62.0071 10.2007 61.5232L24.5642 50.7944L57.5386 80.3968C58.0486 80.8993 58.6592 81.2919 59.3316 81.5496V81.5496ZM62.7647 22.261L37.7443 40.9499L62.7647 59.6382V22.2613V22.261Z" fill="url(#paint0_linear_264_21)" fill-opacity="0.25"/>
</g>
<defs>
<linearGradient id="paint0_linear_264_21" x1="41.8362" y1="0" x2="41.8362" y2="81.8997" gradientUnits="userSpaceOnUse">
<stop stop-color="white"/>
<stop offset="1" stop-color="white" stop-opacity="0"/>
</linearGradient>
</defs>
</svg>
