<svg width="84" height="91" viewBox="0 0 84 91" fill="none" xmlns="http://www.w3.org/2000/svg">
<mask id="mask0_264_21" style="mask-type:alpha" maskUnits="userSpaceOnUse" x="0" y="0" width="84" height="90">
<path d="M59.3316 89.5931C59.9973 89.8737 60.7093 90.0032 61.4233 89.9736C62.1373 89.9439 62.838 89.7557 63.4819 89.4207L80.7066 80.4609C81.5937 79.9991 82.3422 79.276 82.8661 78.3748C83.3899 77.4735 83.6677 76.4307 83.6676 75.3663V14.6116C83.6677 13.5472 83.3898 12.5045 82.866 11.6033C82.3422 10.7021 81.5937 9.97905 80.7066 9.51736L63.4822 0.557158C62.5089 0.0508581 61.4141 -0.115845 60.3493 0.0801232C59.2845 0.276091 58.3024 0.825038 57.539 1.65098L24.5642 34.1731L10.2007 22.3864C9.5528 21.8548 8.75317 21.5851 7.94054 21.6241C7.12792 21.6632 6.35358 22.0086 5.75189 22.6003L1.14526 27.1306C-0.373766 28.6241 -0.375407 31.2076 1.14133 32.7036L13.5977 44.9889L1.14133 57.2739C-0.375407 58.7703 -0.373766 61.3534 1.14526 62.8473L5.75189 67.3772C6.35354 67.969 7.12786 68.3144 7.94048 68.3536C8.75311 68.3927 9.55277 68.1231 10.2007 67.5914L24.5642 55.8045L57.539 88.3265C58.0488 88.8786 58.6593 89.3099 59.3316 89.5931ZM62.7647 24.4571L37.7443 44.9889L62.7647 65.5205V24.4571Z" fill="white"/>
</mask>
<g mask="url(#mask0_264_21)">
<path d="M80.7578 9.53105L63.5196 0.558437C62.546 0.0517279 61.4508 -0.11533 60.3856 0.08038C59.3204 0.27609 58.3377 0.824892 57.5737 1.65084L1.14194 57.2737C-0.375776 58.7701 -0.373807 61.3532 1.14588 62.8471L5.75546 67.377C6.35765 67.969 7.13245 68.3144 7.94555 68.3536C8.75864 68.3927 9.55877 68.123 10.2072 67.5913L78.1639 11.8588C80.4438 9.98929 83.7184 11.7471 83.7184 14.8406V14.6242C83.7184 13.5601 83.4405 12.5176 82.9168 11.6166C82.393 10.7156 81.6447 9.99267 80.7578 9.53105Z" fill="#0065A9"/>
<path d="M80.7578 80.4464L63.5196 89.419C62.546 89.9256 61.4509 90.0926 60.3856 89.8969C59.3204 89.7012 58.3378 89.1525 57.5737 88.3266L1.14194 32.7037C-0.375776 31.2077 -0.373807 28.6243 1.14588 27.1307L5.75546 22.6004C6.35769 22.0085 7.13251 21.6631 7.94561 21.6241C8.7587 21.585 9.55881 21.8548 10.2072 22.3866L78.1639 78.1187C80.4438 79.9882 83.7184 78.2304 83.7184 75.1366V75.3533C83.7183 76.4174 83.4405 77.4599 82.9167 78.3609C82.393 79.2619 81.6446 79.9848 80.7578 80.4464Z" fill="#007ACC"/>
<path d="M63.4661 89.426C62.4923 89.9324 61.397 90.0992 60.3317 89.9033C59.2664 89.7074 58.2837 89.1585 57.5195 88.3325C59.449 90.418 62.7485 88.9408 62.7485 85.9906V3.99821C62.7485 1.04801 59.449 -0.429216 57.5195 1.65664C58.2837 0.830623 59.2663 0.281682 60.3316 0.0857275C61.3969 -0.110227 62.4922 0.056487 63.4661 0.562815L80.7013 9.52301C81.5887 9.98438 82.3376 10.7073 82.8617 11.6085C83.3859 12.5098 83.6639 13.5527 83.6639 14.6172V75.3723C83.6639 77.5447 82.5123 79.5252 80.7013 80.4665L63.4661 89.4264V89.426Z" fill="#1F9CF0"/>
</g>
</svg>
