<svg width="18" height="19" viewBox="0 0 18 19" fill="none" xmlns="http://www.w3.org/2000/svg">
<path fill-rule="evenodd" clip-rule="evenodd" d="M9 0.5C4.0275 0.5 0 4.62937 0 9.72764C0 13.8109 2.57625 17.2597 6.15375 18.4824C6.60375 18.5631 6.7725 18.2863 6.7725 18.0441C6.7725 17.8249 6.76125 17.0982 6.76125 16.3254C4.5 16.7522 3.915 15.7602 3.735 15.2412C3.63375 14.9759 3.195 14.1569 2.8125 13.9378C2.4975 13.7647 2.0475 13.338 2.80125 13.3264C3.51 13.3149 4.01625 13.9954 4.185 14.2723C4.995 15.6679 6.28875 15.2758 6.80625 15.0335C6.885 14.4337 7.12125 14.03 7.38 13.7993C5.3775 13.5687 3.285 12.7728 3.285 9.24319C3.285 8.23969 3.63375 7.4092 4.2075 6.76326C4.1175 6.53257 3.8025 5.58674 4.2975 4.31794C4.2975 4.31794 5.05125 4.07571 6.7725 5.26377C7.4925 5.05615 8.2575 4.95234 9.0225 4.95234C9.7875 4.95234 10.5525 5.05615 11.2725 5.26377C12.9937 4.06418 13.7475 4.31794 13.7475 4.31794C14.2425 5.58674 13.9275 6.53257 13.8375 6.76326C14.4113 7.4092 14.76 8.22815 14.76 9.24319C14.76 12.7843 12.6562 13.5687 10.6537 13.7993C10.98 14.0877 11.2613 14.6414 11.2613 15.5065C11.2613 16.7407 11.25 17.7326 11.25 18.0441C11.25 18.2863 11.4188 18.5746 11.8688 18.4824C13.6554 17.8639 15.2079 16.6866 16.3077 15.1161C17.4076 13.5456 17.9995 11.6611 18 9.72764C18 4.62937 13.9725 0.5 9 0.5Z" fill="white"/>
</svg>
