<svg width="20" height="20" viewBox="0 0 20 20" fill="none" xmlns="http://www.w3.org/2000/svg">
<path d="M0 2.17075C0 1.44769 0.63493 0.861694 1.41833 0.861694H17.8951C18.6785 0.861694 19.3135 1.44769 19.3135 2.17075V17.8292C19.3135 18.5523 18.6785 19.1383 17.8951 19.1383H1.41833C0.63493 19.1383 0 18.5523 0 17.8292V2.17075ZM5.96666 16.1615V7.90845H3.06843V16.1615H5.96666ZM4.51815 6.78102C5.52848 6.78102 6.15738 6.14819 6.15738 5.35544C6.13927 4.54556 5.52969 3.92987 4.53746 3.92987C3.54523 3.92987 2.89702 4.54671 2.89702 5.35544C2.89702 6.14819 3.52592 6.78102 4.49883 6.78102H4.51815ZM10.4426 16.1615V11.5523C10.4426 11.3056 10.4619 11.0589 10.5391 10.883C10.7479 10.3906 11.2248 9.88004 12.0263 9.88004C13.0752 9.88004 13.4941 10.6362 13.4941 11.7465V16.1615H16.3923V11.4278C16.3923 8.89196 14.9631 7.71312 13.0559 7.71312C11.5181 7.71312 10.8288 8.51272 10.4426 9.07587V9.10442H10.4232C10.4297 9.09489 10.4361 9.08537 10.4426 9.07587V7.90845H7.54553C7.58175 8.68292 7.54553 16.1615 7.54553 16.1615H10.4426Z" fill="white"/>
</svg>
